P1
# Projeto PI 2021.2 - Grupo: Diego, Felipe, Luan.
# nada
# algo
100 100
0000000000000000000000000000000000000000000000000000000000000000000000000000000000000000000000000000
0000000000000000000000000000000000000000000000000000000000000000000000000000000000000000000000000000
0000000000000000000000000000000000000000000000000000000000000000000000000000000000000000000000000000
0000000000000000000000000000000000000000000000000000000000000000000000000000000000000000000000000000
0000000000000000000000000000000000000000000000000000000000000000000000000000000000000000000000000000
0000000000000000000000000000000000000000000000000000000000000000000000000000000000000000000000000000
0000000000000000000000000000000000000000000000000000000000000000000000000000000000000000000000000000
0000000000000000000000000000000000000000000000000000000000000000000000000000000000000000000000000000
0000000000000000000000000000000000000000000000000000000000000000000000000000000000000000000000000000
0000000000000000000000000000000000000000000000000000000000000000000000000000000000000000000000000000
0000000000000000000000000000000000000000000000000000000000000000000000000000000000000000000000000000
0000000000000000000000000000000000000000000000000000000000000000000000000000000000000000000000000000
0000000000001111111111111111110000000000000000000000000000000000000000000000000000000000000000000000
0000000000001111111111111111110000000000000000000000000000000000000000000000000000000000000000000000
0000000000001111111111111111110000000000000000000000000000000000000000000000000000000000000000000000
0000000000001111111111111111110000000000000000000000000111111111111111111111111111111111000000000000
0000000000001111111111111111110000000000000000000000000111111111111111111111111111111111000000000000
0000000000001111111111111111110000000000000000000000000111111111111111111111111111111111000000000000
0000000000001111111111111111110000000000000000000000000111111111111111111111111111111111000000000000
0000000000001111111111111111110000000000000000000000000111111111111111111111111111111111000000000000
0000000000001111111111111111110000000000000000000000000000000000000000000000000000000000000000000000
0000000000001111111111111111110000000000000000000000000000000000000000000000000000000000000000000000
0000000000001111111111111111110000000000000000000000000000000000000000000000000000000000000000000000
0000000000001111111111111111110000000000000000000000000000000000000000000000000000000000000000000000
0000000000001111111111111111110000000000000000000000000000000000000000000000000000000000000000000000
0000000000001111111111111111110000000000000000000000000000000000000000000000000000000000000000000000
0000000000001111111111111111110000000000000000000000000000000000000000000000000000000000000000000000
0000000000001111111111111111110000000000000000000000000000000000000000000000000000000000000000000000
0000000000001111111111111111110000000000000000000000000000000000000000000000000000000000000000000000
0000000000000000000000000000000000000000000000000000000000000000000000000000000000000000000000000000
0000000000000000000000000000000000000000000000000000000000000000000000000000000000000000000000000000
0000000000000000000000000000000000000000000000000000000000000000000000000000000000000000000000000000
0000000000000000000000000000000000000000000000000000000000000000000000000000000000000000000000000000
0000000000000000000000000000000000000000000000000000000000000000000000000000000000000000000000000000
0000000000000000000000000000000000000000000000000000000000000000000000000000000000000000000000000000
0000000000000000000000000000000000000000000000000000000000000000000000000000000000000000000000000000
0000000000000000000000000000000000000000000000000000000000000000000000000000000000000000000000000000
0000000000000000000000000000000000000000000000000000000000000000000000000000000000000000000000000000
0000000000000011111000001111100000000000000000000000000000000000000000000000000000000000000000000000
0000000000000011111000001111100000000000000000000000000000000000000000000000000000000000000000000000
0000000000000011111000001111100000000000000000000000000000000000000000000000000000111110000000000000
0000000000000011111000001111100000000000000000000000000000000000000000000000000011111111100000000000
0000000000000011111000001111100000000000000000000000000000000000000000000000001111111111111000000000
0000000000001111111111111111110000000000000000000000000000000000000000000000001111111111111000000000
0000000000001111111111111111110000000000000000000000000000000000000000000000011111111111111100000000
0000000000001111111111111111110000000000000000000011111111111110000000000000011111111111111100000000
0000000000001111111111111111110000000000000000011111111111111111110000000000111111111111111110000000
0000000000001111111111111111110000000000000000111111111111111111111000000000111111111111111110000000
0000000000001111111111111111110000000000000000011111111111111111110000000000111111111111111110000000
0000000000001111111111111111110000000000000000000011111111111110000000000000111111111111111110000000
0000000000001111111111111111110000000000000000000000000000000000000000000000111111111111111110000000
0000000000001111111111111111110000000000000000000000000000000000000000000000011111111111111100000000
0000000000001111111111111111110000000000000000000000000000000000000000000000011111111111111100000000
0000000000001111111111111111110000000000000000000000000000000000000000000000001111111111111000000000
0000000000001111111111111111110000000000000000000000000000000000000000000000001111111111111000000000
0000000000001111111111111111110000000000000000000000000000000000000000000000000011111111100000000000
0000000000001111111111111111110000000000000000000000000000000000000000000000000000111110000000000000
0000000000001111111111111111110000000000000000000000000000000000000000000000000000000000000000000000
0000000000001111111111111111110000000000000000000000000000000000000000000000000000000000000000000000
0000000000001111111111111111110000000000000000000000000000000000000000000000000000000000000000000000
0000000000001111111111111111110000000000000000000000000000000000000000000000000000000000000000000000
0000000000000000000000000000000000000000000000000000000000000000000000000000000000000000000000000000
0000000000000000000000000000000000000000000000000000000000000000000000000000000000000000000000000000
0000000000000000000000000000000000000000000000000000000000000000000000000000000000000000000000000000
0000000000000000000000000000000000000000000000000000000000000000000000000000000000000000000000000000
0000000000000000000000000000000000000000000000000000000000000000000000000000000000000000000000000000
0000000000000000000000000000000000000000000000000000000000000000000000000000000000000000000000000000
0000000000000000000000000000000000000000000000000000000000000000000000000000000000000000000000000000
0000000000000000000000000000000000000000000000000000000000000000000000000000000000000000000000000000
0000000000000000000000000000000000000000000000000000000000000000000000000000000000000000000000000000
0000000000000000000000000000000000000000000000000000000000000000000000000000000000000000000000000000
0000000000000000000000000000000000000001111000000000000000000000000000000000000000000000000000000000
0000000000000000000000000000000000000001111100000000000000000000000000000000000000000000000000000000
0000000000000000000000000000000000000011111110000000000000000000000000000000000000000000000000000000
0000000000000000000000000000000000000011111111000000000111111000000000000000000000000000000000000000
0000000000000000000000000000000000000000001111100000011111111100000000000000000000000000000000000000
0000000000000000000000000000000000000000000111110000111111111110000000000000000000000000000000000000
0000000000000000000000000000000000000011111111111111111111111111000000000000000000000000000000000000
0000000000000000000000000000000000000011111111111111111111111111000000000000000000000000000000000000
0000000000000000000000000000000000000011111111111111111111111111100000000000000000000000000000000000
0000000000000000000000000000000000000011111111111111111111111111100000000000000000000000000000000000
0000000000000000000000000000000000000011100011111111111111111111110000000000000000000000000000000000
0000000000000000000000000000000000000000000011111110000111111111110000000000000000000000000000000000
0000000000000000000000000000000000000000000111111100000111111111110000000000000000000000000000000000
0000000000000000000000000000000000000000001111111000000111111111110000000000000000000000000000000000
0000000000000000000000000000000000000000001111111000000011111111110000000000000000000000000000000000
0000000000000000000000000000000000000000001111111000000011111111100000000000000000000000000000000000
0000000000000000000000000000000000000000001111100000000001100000000000000000000000000000000000000000
0000000000000000000000000000000000000000000111100000000000000000000000000000000000000000000000000000
0000000000000000000000000000000000000000000000000000000000000000000000000000000000000000000000000000
0000000000000000000000000000000000000000000000000000000000000000000000000000000000000000000000000000
0000000000000000000000000000000000000000000000000000000000000000000000000000000000000000000000000000
0000000000000000000000000000000000000000000000000000000000000000000000000000000000000000000000000000
0000000000000000000000000000000000000000000000000000000000000000000000000000000000000000000000000000
0000000000000000000000000000000000000000000000000000000000000000000000000000000000000000000000000000
0000000000000000000000000000000000000000000000000000000000000000000000000000000000000000000000000000
0000000000000000000000000000000000000000000000000000000000000000000000000000000000000000000000000000
0000000000000000000000000000000000000000000000000000000000000000000000000000000000000000000000000000
0000000000000000000000000000000000000000000000000000000000000000000000000000000000000000000000000000
0000000000000000000000000000000000000000000000000000000000000000000000000000000000000000000000000000
